<svg width="2829" height="531" viewBox="0 0 2829 531" fill="none" xmlns="http://www.w3.org/2000/svg">
<path d="M406.249 527.099H391.083L74.8917 29.6846V486.912C74.8917 501.318 83.2325 508.901 100.672 508.901H140.102V518H1.34114V508.901H40.7703C57.4519 508.901 65.7927 501.318 65.7927 486.912V21.3439H0.582889V12.2448H181.047L397.15 357.25V42.575C397.15 28.1682 388.809 21.3439 372.127 21.3439H332.698V12.2448H471.458V21.3439H432.787C415.348 21.3439 406.249 28.1682 406.249 42.575V527.099ZM475.333 265.502C475.333 193.467 496.564 131.291 539.026 78.9711C582.246 26.6517 635.324 0.112769 699.776 0.112769C761.194 0.112769 814.272 25.8934 858.251 78.2129C902.229 129.774 924.219 191.951 924.219 265.502C924.219 339.052 902.229 401.229 858.251 452.79C814.272 504.351 761.194 530.132 699.776 530.132C638.357 530.132 585.279 504.351 541.301 452.79C497.322 401.229 475.333 339.052 475.333 265.502ZM812.755 265.502C812.755 141.906 799.107 64.5643 771.051 34.9924C754.37 17.5526 730.864 9.21183 699.776 9.21183C668.687 9.21183 645.181 17.5526 629.258 34.9924C601.203 64.5643 586.796 141.906 586.796 265.502C586.796 333.744 589.829 384.547 595.895 418.669C602.719 452.79 613.335 477.813 629.258 495.252C645.181 512.692 668.687 521.791 699.776 521.791C731.622 521.791 755.128 512.692 771.051 495.252C786.975 478.571 797.59 453.548 803.656 419.427C809.722 385.306 812.755 334.503 812.755 265.502ZM1176.43 530.132C1068 530.132 999.754 480.087 999.754 377.723V21.3439H935.302V12.2448H1165.81V21.3439H1099.08V383.031C1099.08 471.747 1124.11 514.967 1193.87 514.967C1284.86 514.967 1333.39 460.373 1333.39 373.174V42.575C1333.39 28.1682 1325.04 21.3439 1307.6 21.3439H1265.14V12.2448H1407.69V21.3439H1368.27C1350.83 21.3439 1342.48 28.1682 1342.48 42.575V367.866C1342.48 470.23 1288.65 530.132 1176.43 530.132ZM1745.4 355.734C1745.4 400.471 1730.99 441.416 1701.42 477.054C1671.84 512.692 1632.42 530.132 1581.61 530.132C1564.17 530.132 1541.43 525.583 1513.37 515.725C1485.31 505.868 1468.63 500.56 1461.81 500.56C1442.85 500.56 1426.93 513.45 1424.65 527.857H1415.56V356.492H1424.65C1424.65 376.207 1431.48 398.954 1444.37 423.977C1457.26 448.999 1476.22 471.747 1501.24 492.219C1526.26 511.934 1552.8 521.791 1580.85 521.791C1655.92 521.791 1692.32 483.12 1692.32 432.317C1692.32 396.679 1685.49 376.965 1657.44 356.492C1643.79 346.635 1629.38 338.294 1614.98 331.47C1600.57 324.645 1577.06 315.546 1545.97 304.172C1470.91 276.117 1430.72 239.721 1430.72 161.621C1430.72 115.367 1443.61 77.4546 1470.15 46.3662C1496.69 15.2778 1528.53 0.112769 1564.17 0.112769C1578.58 0.112769 1594.5 3.14579 1610.43 9.97007C1627.11 16.0361 1641.51 19.0691 1653.65 19.0691C1671.09 19.0691 1680.19 13.7613 1682.46 2.38755H1690.04V135.082H1682.46C1682.46 100.961 1671.09 72.1469 1647.58 47.1245C1624.07 22.1021 1596.78 9.21183 1564.93 9.21183C1511.1 9.21183 1478.49 42.575 1478.49 91.8614C1478.49 142.664 1512.61 171.478 1600.57 204.841C1651.37 223.798 1688.53 244.27 1711.27 264.743C1734.02 285.216 1745.4 315.546 1745.4 355.734ZM1982.59 508.901V518H1751.32V508.901H1815.77V21.3439H1751.32V12.2448H1982.59V21.3439H1916.62V508.901H1982.59ZM2338.97 355.734C2338.97 400.471 2324.56 441.416 2294.99 477.054C2265.42 512.692 2225.99 530.132 2175.18 530.132C2157.74 530.132 2135 525.583 2106.94 515.725C2078.88 505.868 2062.2 500.56 2055.38 500.56C2036.42 500.56 2020.5 513.45 2018.22 527.857H2009.13V356.492H2018.22C2018.22 376.207 2025.05 398.954 2037.94 423.977C2050.83 448.999 2069.79 471.747 2094.81 492.219C2119.83 511.934 2146.37 521.791 2174.42 521.791C2249.49 521.791 2285.89 483.12 2285.89 432.317C2285.89 396.679 2279.06 376.965 2251.01 356.492C2237.36 346.635 2222.95 338.294 2208.55 331.47C2194.14 324.645 2170.63 315.546 2139.55 304.172C2064.48 276.117 2024.29 239.721 2024.29 161.621C2024.29 115.367 2037.18 77.4546 2063.72 46.3662C2090.26 15.2778 2122.11 0.112769 2157.74 0.112769C2172.15 0.112769 2188.07 3.14579 2204 9.97007C2220.68 16.0361 2235.09 19.0691 2247.22 19.0691C2264.66 19.0691 2273.76 13.7613 2276.03 2.38755H2283.61V135.082H2276.03C2276.03 100.961 2264.66 72.1469 2241.15 47.1245C2217.65 22.1021 2190.35 9.21183 2158.5 9.21183C2104.67 9.21183 2072.06 42.575 2072.06 91.8614C2072.06 142.664 2106.18 171.478 2194.14 204.841C2244.94 223.798 2282.1 244.27 2304.84 264.743C2327.59 285.216 2338.97 315.546 2338.97 355.734ZM2828.66 508.901V518H2604.97V508.901H2662.6V258.677H2510.19V508.901H2568.57V518H2344.89V508.901H2409.34V21.3439H2344.89V12.2448H2568.57V21.3439H2510.19V249.578H2662.6V21.3439H2604.97V12.2448H2828.66V21.3439H2764.2V508.901H2828.66Z" fill="#052B08"/>
</svg>
