<svg width="601" height="143" viewBox="0 0 601 143" fill="none" xmlns="http://www.w3.org/2000/svg">
<path d="M166.379 36.1197H198.222V37.4544H189.07L208.804 89.1273L228.921 37.4544H220.34V36.1197H238.55V37.4544H230.351L203.466 106.574H200.701L174.388 37.4544H166.379V36.1197ZM235.564 36.1197H292.576V52.4224H291.336C291.018 51.3419 290.478 49.9754 289.715 48.3229C288.953 46.6068 287.872 44.9543 286.474 43.3653C285.139 41.7764 283.391 40.4099 281.23 39.2658C279.069 38.0582 276.432 37.4544 273.317 37.4544H258.159V66.9137H263.498C265.849 66.9137 267.82 66.5959 269.409 65.9603C271.061 65.2612 272.428 64.3078 273.508 63.1002C274.589 61.829 275.478 60.3354 276.178 58.6193C276.877 56.8397 277.449 54.8694 277.894 52.7084H279.133V82.3584H277.894C277.449 80.5152 276.908 78.7356 276.273 77.0195C275.701 75.3034 274.906 73.8098 273.889 72.5386C272.873 71.2039 271.601 70.1552 270.076 69.3925C268.614 68.6298 266.771 68.2484 264.546 68.2484H258.159V102.665H273.794C276.718 102.665 279.355 102.189 281.707 101.235C284.059 100.218 286.124 98.82 287.904 97.0404C289.747 95.2607 291.273 93.1951 292.48 90.8434C293.688 88.4282 294.609 85.8541 295.245 83.1211H296.484V104H235.564V102.665H244.335V37.4544H235.564V36.1197ZM322.004 66.9137H325.913C328.773 66.9137 331.03 66.5324 332.682 65.7697C334.335 65.007 335.574 63.99 336.4 62.7189C337.227 61.3841 337.735 59.8905 337.926 58.238C338.18 56.5855 338.307 54.9012 338.307 53.1851C338.307 50.3885 338.116 48.0051 337.735 46.0348C337.354 44.0009 336.718 42.3484 335.828 41.0772C334.938 39.7425 333.699 38.7574 332.11 38.1218C330.585 37.4862 328.614 37.1684 326.199 37.1684C325.5 37.1684 324.801 37.2002 324.102 37.2637C323.403 37.3273 322.703 37.3909 322.004 37.4544V66.9137ZM308.18 37.4544H299.409V36.1197H313.805C316.475 36.1197 319.112 36.0879 321.718 36.0244C324.324 35.8972 326.962 35.8337 329.631 35.8337C332.11 35.8337 334.716 36.0879 337.449 36.5964C340.246 37.1048 342.788 37.9947 345.076 39.2658C347.364 40.4734 349.239 42.126 350.701 44.2234C352.226 46.3208 352.989 48.9585 352.989 52.1364C352.989 54.6787 352.417 56.8715 351.273 58.7147C350.129 60.4943 348.635 61.9562 346.792 63.1002C345.012 64.2443 343.01 65.1341 340.786 65.7697C338.561 66.3417 336.369 66.723 334.208 66.9137V67.3904C337.322 67.9624 340.087 68.5344 342.502 69.1065C344.981 69.6785 347.11 70.5365 348.89 71.6806C350.669 72.8246 352.067 74.4136 353.084 76.4475C354.165 78.4813 354.832 81.2143 355.086 84.6465C355.404 88.6507 355.658 91.8604 355.849 94.2756C356.04 96.6908 356.294 98.5658 356.612 99.9005C356.993 101.235 357.47 102.125 358.042 102.57C358.678 103.015 359.567 103.237 360.711 103.237C361.983 103.237 363.031 102.888 363.858 102.189C364.684 101.426 365.415 100.727 366.05 100.091L367.004 100.949C366.368 101.585 365.732 102.189 365.097 102.761C364.525 103.269 363.826 103.714 362.999 104.095C362.237 104.477 361.283 104.763 360.139 104.953C358.995 105.208 357.565 105.335 355.849 105.335C352.353 105.335 349.62 104.794 347.65 103.714C345.68 102.57 344.218 101.172 343.265 99.5191C342.311 97.8666 341.707 96.087 341.453 94.1802C341.263 92.2099 341.135 90.3667 341.072 88.6507C340.945 86.0448 340.754 83.5342 340.5 81.119C340.309 78.6402 339.801 76.4475 338.974 74.5407C338.148 72.634 336.909 71.1086 335.256 69.9645C333.604 68.8205 331.284 68.2484 328.297 68.2484H322.004V102.665H330.775V104H299.409V102.665H308.18V37.4544ZM388.996 49.753L378.318 75.7801H400.246L388.996 49.753ZM357.725 102.665H365.734L394.144 33.4502H396.718L426.75 102.665H434.949V104H402.915V102.665H411.782L400.723 77.1148H377.842L367.259 102.665H375.744V104H357.725V102.665Z" fill="#052B08"/>
</svg>
